<?xml version="1.0" encoding="UTF-8" standalone="no"?>
<svg
   viewBox="0 0 672.03003 199.99992"
   version="1.1"
   id="svg9"
   sodipodi:docname="blueberry.svg"
   inkscape:version="1.3.2 (091e20ef0f, 2023-11-25, custom)"
   width="672.03003"
   height="199.99991"
   inkscape:export-filename="blueberry.svg"
   inkscape:export-xdpi="1564.4073"
   inkscape:export-ydpi="1564.4073"
   xmlns:inkscape="http://www.inkscape.org/namespaces/inkscape"
   xmlns:sodipodi="http://sodipodi.sourceforge.net/DTD/sodipodi-0.dtd"
   xmlns:xlink="http://www.w3.org/1999/xlink"
   xmlns="http://www.w3.org/2000/svg"
   xmlns:svg="http://www.w3.org/2000/svg">
  <defs
     id="defs9" />
  <sodipodi:namedview
     id="namedview9"
     pagecolor="#505050"
     bordercolor="#ffffff"
     borderopacity="1"
     inkscape:showpageshadow="0"
     inkscape:pageopacity="0"
     inkscape:pagecheckerboard="1"
     inkscape:deskcolor="#505050"
     inkscape:zoom="1"
     inkscape:cx="259.99999"
     inkscape:cy="194.49999"
     inkscape:window-width="1920"
     inkscape:window-height="1026"
     inkscape:window-x="0"
     inkscape:window-y="30"
     inkscape:window-maximized="1"
     inkscape:current-layer="svg9" />
  <g
     id="g9"
     inkscape:label="blueberry"
     transform="matrix(5.2126047,0,0,5.2126047,11.584352,3.0706515)"
     style="display:inline">
    <path
       fill="#5c913b"
       d="m 8.089,1 c 0,0 5.858,0.616 8.54,4.06 3.206,4.117 0.891,7.962 0.891,7.962 0,0 -4.825,-0.425 -7.03,-3.157 C 7.287,5.896 8.089,1 8.089,1 Z"
       id="path1" />
    <path
       fill="#77b255"
       d="m 21.901,1 c 0,0 0.913,4.617 -1.006,7.47 -2.293,3.41 -5.676,2.54 -5.676,2.54 0,0 -0.813,-3.784 0.691,-6.106 C 18.096,1.53 21.901,1 21.901,1 Z"
       id="path2" />
    <ellipse
       fill="#5864b7"
       cx="23.737"
       cy="11.536"
       rx="6.9159999"
       ry="6.027"
       id="ellipse2" />
    <path
       fill="#334372"
       d="m 19.34,16.996 c 0,-0.851 -0.124,-1.64 -0.34,-2.373 1.231,-0.409 2.569,-0.641 3.983,-0.641 2.263,0 4.355,0.55 6.073,1.562 C 27.818,17.147 25.7,18 23.292,18 c -1.476,0 -2.834,-0.331 -3.955,-0.949 0,-0.019 0.003,-0.036 0.003,-0.055 z"
       id="path3" />
    <path
       fill="#334372"
       d="m 21.761,16.558 c 0,0.27 -0.017,0.531 -0.04,0.789 -2.836,-0.632 -4.901,-2.641 -4.901,-5.811 0,-0.778 0.129,-1.483 0.359,-2.119 2.732,1.246 4.582,3.739 4.582,7.141 z"
       id="path4" />
    <ellipse
       fill="#5864b7"
       cx="10.892"
       cy="16.558001"
       rx="8.8920002"
       ry="8.0349998"
       id="ellipse4" />
    <path
       fill="#334372"
       d="m 10.892,24.091 c 0,-5.278 3.75,-8.713 8.687,-9.406 0.132,0.589 0.206,1.213 0.206,1.872 0,4.984 -3.968,8.024 -8.867,8.034 -0.008,-0.166 -0.026,-0.329 -0.026,-0.5 z"
       id="path5" />
    <ellipse
       transform="rotate(-60,17.507,21.52)"
       fill="#aa8dd8"
       cx="17.507"
       cy="21.518999"
       rx="2.5250001"
       ry="2.5"
       id="ellipse5" />
    <ellipse
       fill="#5864b7"
       cx="22.440001"
       cy="25.094999"
       rx="10.56"
       ry="9.5419998"
       id="ellipse6" />
    <path
       fill="#334372"
       d="m 17.043,19.746 c 0.702,-1.228 1.699,-0.59 2.881,-1.366 0.95,-0.624 1.079,-1.574 2.079,-1.574 1,0 1.604,0.832 2.168,1.04 1.327,0.489 2.119,-0.228 3.119,0.772 1,1 -0.772,1.901 -0.921,2.673 -0.189,0.982 1.04,1.693 0.178,2.168 C 25.31,24.142 24.998,22.903 23,23 21.498,23.073 20.904,24.528 19.597,24.082 18.258,23.626 20.072,22.33 19.27,21.498 18.289,20.48 16.568,20.578 17.043,19.746 Z M 6.172,11.756 C 6.617,10.72 7.237,11.317 8.104,10.595 8.8,10.014 8.816,9.25 9.608,9.159 10.4,9.068 10.954,9.673 11.42,9.786 c 1.096,0.267 1.88,-0.08 2.541,0.329 0.959,0.594 -0.138,1.312 -0.186,1.937 -0.061,0.795 0.676,1.511 0.036,1.966 -0.919,0.654 -1.492,-0.174 -3.066,0.083 C 9.562,14.295 9.474,15.138 8.398,14.903 7.296,14.663 8.247,13.588 7.537,13.002 6.668,12.286 5.87,12.458 6.172,11.756 Z M 24.39,6.679 c 0.831,-0.296 0.818,0.377 1.693,0.49 0.703,0.091 1.15,-0.307 1.624,0.1 0.473,0.406 0.421,1.045 0.604,1.373 0.429,0.77 1.046,1.036 1.162,1.632 0.17,0.866 -0.826,0.618 -1.21,0.924 -0.488,0.388 -0.508,1.191 -1.108,1.066 C 26.291,12.084 26.462,11.316 25.477,10.55 24.737,9.974 24.207,10.373 23.769,9.631 23.321,8.871 24.443,8.846 24.401,8.126 24.35,7.245 23.828,6.879 24.39,6.679 Z"
       id="path6" />
    <ellipse
       fill="#253356"
       cx="22.667"
       cy="20.181999"
       rx="3.7579999"
       ry="2.3870001"
       id="ellipse7" />
    <ellipse
       fill="#253356"
       cx="10.455"
       cy="11.945"
       rx="2.8180001"
       ry="1.791"
       id="ellipse8" />
    <ellipse
       transform="rotate(-40.137,26.699,9.278)"
       fill="#253356"
       cx="26.700001"
       cy="9.2779999"
       rx="1.293"
       ry="2.0350001"
       id="ellipse9" />
  </g>
  <path
     stroke="#848cc8"
     stroke-width="1.6"
     stroke-dasharray="2148.409912109375"
     stroke-opacity="1"
     fill="none"
     stroke-dashoffset="2148.409912109375"


     d="m 188.31025,132.33351 c 1.23659,0.41218 2.47319,0.61829 3.91588,0.61829 6.18298,0 11.23241,-5.04942 11.23241,-11.23239 V 71.019016 h -15.14829 z m 24.3197,-34.727702 c 4.01894,1.545741 6.80126,8.862262 6.80126,17.724522 0,8.86226 -3.40063,16.28184 -6.80126,17.72453 10.09885,0 21.53735,-7.00737 21.53735,-17.72453 0,-10.71715 -11.4385,-17.724522 -21.53735,-17.724522 z M 234.1673,84.312412 c 0,-8.140917 -11.4385,-13.396444 -21.53735,-13.396444 4.01894,1.133544 6.80126,6.698224 6.80126,13.396444 0,6.595171 -3.40063,12.159846 -6.80126,13.293396 10.09885,0 21.53735,-5.255533 21.53735,-13.293396 z m 24.01057,40.498478 V 71.019016 h -15.14829 v 50.700394 c 0,6.18297 5.04944,11.23239 11.23241,11.23239 2.57623,0 5.04942,-0.82439 7.00736,-2.37013 l 7.41957,-5.77078 z M 302.59216,83.591066 V 132.9518 l 15.25133,0.10298 V 83.591041 Z m -28.64779,0 v 38.128344 c 0,6.18297 5.04943,11.23239 11.23241,11.23239 2.57623,0 5.04943,-0.82439 7.00737,-2.37013 l 7.62567,-5.97688 -10.71716,0.10298 V 83.591048 Z m 67.0853,20.609914 c -1.13354,-7.83177 1.44271,-15.251341 6.49213,-20.609914 -13.39644,2.164038 -22.56785,14.736088 -20.60991,28.132534 1.95794,13.60253 14.63304,22.98005 28.13253,21.02211 5.87382,-0.8244 10.92325,-3.60674 14.63304,-7.62567 -0.20612,0 -0.30915,0.10298 -0.51527,0.10298 -13.60254,1.95794 -26.17459,-7.41957 -28.13253,-21.02211 z m 16.79709,-3.91589 -11.54155,9.06837 h 22.98005 c 6.38907,-16.59098 -6.59517,-25.762394 -17.51843,-25.762394 8.03787,7.728715 6.07993,16.694024 6.07993,16.694024 z m 69.97065,-0.20612 C 423.26322,87.403875 409.45458,80.705651 396.7795,84.930687 c 6.90431,2.37014 12.57204,7.728715 15.25132,15.045238 4.53418,12.778145 -2.16404,26.895935 -15.04523,31.430125 -0.10298,0 -0.30915,0.10298 -0.41219,0.10298 5.04944,1.75183 10.82021,1.85489 16.28183,0 12.77816,-4.53419 19.47638,-18.65199 14.94219,-31.43012 z m -48.02109,32.25452 c 1.23658,0.41218 2.47318,0.6183 3.91588,0.6183 6.18297,0 11.23239,-5.04944 11.23239,-11.23241 V 71.018991 h -15.14827 z m 71.1042,-28.13254 c -1.13354,-7.831763 1.44269,-15.251334 6.49213,-20.609909 -13.39644,2.164039 -22.56787,14.736089 -20.60991,28.132529 1.95794,13.60255 14.63304,22.98006 28.13253,21.02211 5.87382,-0.8244 10.92325,-3.60673 14.63304,-7.62567 -0.20612,0 -0.30916,0.10298 -0.51528,0.10298 -13.60254,1.95796 -26.17458,-7.41956 -28.13252,-21.02211 z m 16.79709,-3.91588 -11.54156,9.06836 h 22.98006 c 6.38906,-16.590975 -6.59518,-25.762389 -17.51843,-25.762389 8.03787,7.728716 6.07993,16.694029 6.07993,16.694029 z m 48.94853,-16.694029 c -4.32808,0 -7.72872,3.400637 -7.72872,7.728716 0,4.225036 3.40064,7.72872 7.72872,7.72872 4.22504,0 7.72872,-3.503684 7.72872,-7.72872 0,-4.328079 -3.50368,-7.728716 -7.72872,-7.728716 z M 503.22969,132.95179 V 83.487993 h -15.14828 v 49.463797 z m 53.37973,-49.360749 c -4.3281,0 -7.72873,3.400637 -7.72873,7.728716 0,4.225036 3.40063,7.72872 7.72873,7.72872 4.22502,0 7.72871,-3.503684 7.72871,-7.72872 0,-4.328079 -3.50369,-7.728716 -7.72871,-7.728716 z M 543.21296,132.95179 V 83.487993 h -15.14828 v 49.463797 z m 35.96439,0 c -3.50368,0 -6.28602,2.88538 -6.28602,6.38906 0,3.40064 2.78234,6.28602 6.28602,6.28602 3.50369,0 6.28603,-2.88538 6.28603,-6.28602 0,-3.50368 -2.78234,-6.38906 -6.28603,-6.38906 z M 601.9513,83.591041 c -4.32808,0 -7.72871,3.400637 -7.72871,7.728716 0,4.225036 3.40063,7.72872 7.72871,7.72872 4.22505,0 7.72873,-3.503684 7.72873,-7.72872 0,-4.328079 -3.50368,-7.728716 -7.72873,-7.728716 z m -37.51004,0 24.938,49.463789 8.55311,-16.90012 -16.38488,-32.563669 z"
     id="text-part"
     aria-label="Blueberry"
     />
  
  
  <animate
     id="stroke-animation"
     xlink:href="#text-part"
     attributeName="stroke-dashoffset"
     values="2148.409912109375;0"
     dur="3s"
     keyTimes="0;1"
     calcMode="spline"
     keySplines="0.47 0 0.745 0.715"
     repeatCount="1"
     fill="freeze" />
  <animate
     id="fill-animation"
     xlink:href="#text-part"
     attributeName="fill"
     values="transparent;rgb(132, 140, 200)"
     dur=".7s"
     keyTimes="0;1"
     calcMode="spline"
     keySplines="0.47, 0, 0.745, 0.715"
     begin="0.5s"
     fill="freeze" />
</svg>
