<?xml version="1.0" encoding="UTF-8" standalone="no"?>
<!-- Created with Inkscape (http://www.inkscape.org/) -->

<svg
   width="96.800003"
   height="47.516109"
   viewBox="0 0 25.61165 12.571963"
   version="1.1"
   id="svg1"
   inkscape:export-filename="gpl-logo.svg"
   inkscape:export-xdpi="29.559999"
   inkscape:export-ydpi="29.559999"
   xmlns:inkscape="http://www.inkscape.org/namespaces/inkscape"
   xmlns:sodipodi="http://sodipodi.sourceforge.net/DTD/sodipodi-0.dtd"
   xmlns="http://www.w3.org/2000/svg"
   xmlns:svg="http://www.w3.org/2000/svg">
  <sodipodi:namedview
     id="namedview1"
     pagecolor="#505050"
     bordercolor="#ffffff"
     borderopacity="1"
     inkscape:showpageshadow="0"
     inkscape:pageopacity="0"
     inkscape:pagecheckerboard="1"
     inkscape:deskcolor="#505050"
     inkscape:document-units="px" />
  <defs
     id="defs1" />
  <g
     id="g373"
     transform="matrix(0.14844895,0,0,0.14844895,-89.802536,-64.219773)">
	<g
   id="g375">
		<path
   d="m 657.869,468.791 c -0.598,0.469 -1.32,0.702 -2.167,0.702 h -7.52 c -0.855,0 -1.569,-0.229 -2.142,-0.689 -0.613,-0.478 -0.922,-1.064 -0.922,-1.765 v -5.869 c 0,-0.683 0.309,-1.266 0.922,-1.751 0.598,-0.47 1.32,-0.703 2.166,-0.703 h 7.532 c 0.789,0 1.457,0.218 2.005,0.653 0.572,0.437 0.941,1.123 1.107,2.059 h -1.531 c -0.107,-0.45 -0.311,-0.768 -0.609,-0.949 -0.258,-0.155 -0.586,-0.233 -0.984,-0.233 h -7.52 c -0.447,0 -0.83,0.103 -1.145,0.309 -0.274,0.172 -0.412,0.378 -0.412,0.616 v 5.869 c 0,0.247 0.138,0.461 0.412,0.642 l -0.014,-0.012 c 0.308,0.205 0.686,0.309 1.134,0.309 h 7.52 c 0.39,0 0.739,-0.082 1.046,-0.247 0.365,-0.173 0.548,-0.407 0.548,-0.702 v -2.159 h -6.089 v -1.517 h 7.607 v 3.687 c 10e-4,0.682 -0.314,1.265 -0.944,1.75 z"
   id="path377" />

		<path
   d="m 673.941,464.167 c -0.574,0.46 -1.291,0.69 -2.154,0.69 h -9.076 v 4.636 h -1.531 v -8.323 c 0,-0.683 0.307,-1.266 0.922,-1.751 0.598,-0.47 1.319,-0.703 2.166,-0.703 h 7.52 c 0.838,0 1.552,0.233 2.141,0.703 0.623,0.485 0.935,1.068 0.935,1.751 v 1.233 c -0.002,0.699 -0.309,1.286 -0.923,1.764 z m -0.597,-2.997 c 0,-0.23 -0.142,-0.437 -0.424,-0.616 -0.315,-0.206 -0.693,-0.309 -1.133,-0.309 h -7.532 c -0.382,0 -0.727,0.078 -1.034,0.233 -0.34,0.157 -0.51,0.387 -0.51,0.691 v 2.171 h 9.076 c 0.439,0 0.817,-0.1 1.133,-0.296 0.282,-0.182 0.424,-0.395 0.424,-0.642 z"
   id="path379" />

		<path
   d="m 690.91,467.09 c -0.125,0.731 -0.474,1.319 -1.047,1.763 -0.556,0.428 -1.229,0.641 -2.016,0.641 h -7.533 c -0.846,0 -1.564,-0.229 -2.153,-0.689 -0.622,-0.478 -0.934,-1.064 -0.934,-1.765 v -8.311 h 1.556 v 8.311 c 0,0.247 0.137,0.461 0.411,0.642 l -0.013,-0.012 c 0.307,0.205 0.686,0.309 1.133,0.309 h 7.533 c 0.381,0 0.713,-0.082 0.996,-0.247 h -0.014 c 0.299,-0.181 0.502,-0.489 0.611,-0.925 h 1.219 z"
   id="path381" />

	</g>

	<g
   id="g383">
		<path
   d="m 743.638,439.604 h 19.454 l -29.968,50.5 c -1.712,2.814 -3.382,4.98 -5.009,6.498 -1.629,1.519 -3.133,2.622 -4.512,3.312 -1.38,0.69 -2.566,1.091 -3.56,1.2 -0.993,0.111 -1.685,0.166 -2.069,0.166 h -17.883 v -43.628 h 16.724 l 0.083,29.968 z"
   id="path385"
   style="fill:#9b9c9e" />

	</g>

	<g
   id="g387">
		<rect
   x="619.19702"
   y="501.28"
   width="80.894997"
   height="9.0150003"
   id="rect389"
   style="fill:#9b9c9e" />

		<g
   id="g391">
			<path
   d="m 637.979,504.755 c 0.026,-0.164 -0.003,-0.275 -0.084,-0.337 h 0.005 c -0.074,-0.057 -0.182,-0.084 -0.322,-0.086 l -2.67,-0.008 c -0.16,0 -0.307,0.034 -0.443,0.108 -0.119,0.061 -0.195,0.135 -0.227,0.221 l -0.285,0.777 1.971,0.005 -0.203,0.547 -1.969,-0.007 -0.611,1.662 -0.549,-10e-4 1.096,-2.986 c 0.09,-0.242 0.279,-0.451 0.561,-0.625 0.273,-0.168 0.561,-0.252 0.861,-0.25 l 2.67,0.008 c 0.283,10e-4 0.494,0.081 0.631,0.236 0.152,0.157 0.194,0.403 0.125,0.736 z"
   id="path393"
   style="fill:#ffffff" />

			<path
   d="m 641.92,505.812 c 0.01,-0.154 -0.036,-0.26 -0.138,-0.315 -0.038,-0.022 -0.081,-0.041 -0.131,-0.051 -0.05,-0.008 -0.099,-0.012 -0.151,-0.012 l -1.289,-0.005 c -0.13,-10e-4 -0.258,0.025 -0.387,0.075 -0.148,0.055 -0.237,0.125 -0.268,0.21 l -0.715,1.942 -0.549,-0.002 1.019,-2.772 0.551,10e-4 -0.043,0.115 c 0.108,-0.041 0.211,-0.07 0.304,-0.088 0.094,-0.018 0.189,-0.026 0.283,-0.026 l 1.292,0.005 c 0.246,10e-4 0.446,0.064 0.601,0.187 0.187,0.153 0.242,0.396 0.164,0.738 z"
   id="path395"
   style="fill:#ffffff" />

			<path
   d="m 646.805,505.728 c -0.094,0.258 -0.299,0.467 -0.611,0.632 -0.261,0.137 -0.523,0.201 -0.789,0.199 l -1.288,-0.002 c -0.085,-0.002 -0.164,-0.009 -0.239,-0.023 -0.074,-0.014 -0.166,-0.042 -0.27,-0.084 l -0.137,0.37 -0.003,0.008 c -0.022,0.079 0.024,0.147 0.135,0.209 0.047,0.035 0.097,0.057 0.149,0.07 0.051,0.014 0.103,0.02 0.154,0.021 l 1.289,0.003 c 0.053,0.002 0.107,-0.004 0.162,-0.011 0.055,-0.01 0.109,-0.026 0.165,-0.048 0.145,-0.057 0.267,-0.161 0.368,-0.314 l 0.546,0.002 c -0.171,0.336 -0.406,0.578 -0.702,0.728 -0.244,0.127 -0.49,0.19 -0.738,0.188 l -1.289,-0.004 c -0.248,0 -0.455,-0.066 -0.623,-0.196 -0.209,-0.164 -0.266,-0.378 -0.168,-0.644 l 0.407,-1.108 c 0.098,-0.264 0.298,-0.473 0.601,-0.628 0.254,-0.132 0.521,-0.198 0.802,-0.197 l 1.29,0.005 c 0.271,0 0.485,0.064 0.646,0.192 0.192,0.156 0.242,0.366 0.143,0.632 z m -0.553,0.006 c 0.027,-0.07 0,-0.132 -0.077,-0.186 -0.083,-0.067 -0.205,-0.102 -0.364,-0.104 l -1.284,-0.004 c -0.112,0 -0.239,0.025 -0.382,0.076 -0.149,0.051 -0.239,0.121 -0.271,0.206 -0.031,0.083 0.01,0.152 0.113,0.208 0.096,0.054 0.207,0.081 0.329,0.081 l 1.29,0.004 c 0.152,0.002 0.297,-0.031 0.435,-0.096 0.115,-0.051 0.186,-0.112 0.211,-0.185 z"
   id="path397"
   style="fill:#ffffff" />

			<path
   d="m 651.127,505.741 c -0.096,0.258 -0.299,0.467 -0.613,0.632 -0.26,0.135 -0.522,0.201 -0.788,0.2 l -1.288,-0.005 c -0.086,0 -0.166,-0.008 -0.24,-0.021 -0.074,-0.013 -0.164,-0.043 -0.271,-0.084 l -0.135,0.37 -0.003,0.008 c -0.021,0.079 0.025,0.147 0.135,0.21 0.047,0.034 0.097,0.055 0.147,0.069 0.052,0.014 0.104,0.02 0.157,0.02 l 1.289,0.004 c 0.051,0 0.105,-0.004 0.161,-0.011 0.056,-0.01 0.11,-0.026 0.167,-0.048 0.143,-0.058 0.266,-0.161 0.367,-0.315 l 0.543,0.003 c -0.17,0.336 -0.404,0.578 -0.701,0.728 -0.244,0.126 -0.488,0.188 -0.738,0.188 l -1.287,-0.004 c -0.248,-10e-4 -0.456,-0.067 -0.624,-0.196 -0.21,-0.164 -0.265,-0.379 -0.167,-0.643 l 0.406,-1.109 c 0.098,-0.263 0.297,-0.473 0.599,-0.628 0.257,-0.132 0.522,-0.198 0.804,-0.196 l 1.288,0.004 c 0.271,0 0.487,0.064 0.648,0.192 0.193,0.157 0.242,0.367 0.144,0.632 z m -0.553,0.007 c 0.025,-0.069 -10e-4,-0.132 -0.078,-0.186 -0.082,-0.067 -0.205,-0.102 -0.365,-0.104 l -1.283,-0.004 c -0.111,0 -0.24,0.025 -0.381,0.074 -0.15,0.053 -0.241,0.121 -0.273,0.208 -0.028,0.083 0.009,0.151 0.115,0.208 0.094,0.054 0.205,0.081 0.328,0.081 l 1.289,0.004 c 0.152,0.002 0.297,-0.031 0.434,-0.096 0.117,-0.052 0.189,-0.113 0.214,-0.185 z"
   id="path399"
   style="fill:#ffffff" />

			<path
   d="m 659.42,507.472 c -0.262,0.165 -0.547,0.246 -0.852,0.246 l -2.678,-0.008 c -0.281,-0.002 -0.491,-0.077 -0.63,-0.229 -0.15,-0.163 -0.192,-0.412 -0.126,-0.745 l 0.545,0.002 c -0.02,0.156 0.01,0.27 0.089,0.337 h -0.006 c 0.08,0.059 0.188,0.089 0.327,0.089 l 2.679,0.009 c 0.157,10e-4 0.303,-0.036 0.438,-0.108 0.124,-0.063 0.202,-0.14 0.235,-0.227 l 0.162,-0.441 c 0.031,-0.085 0.009,-0.161 -0.068,-0.226 -0.082,-0.074 -0.203,-0.11 -0.362,-0.111 l -2.674,-0.009 c -0.302,-10e-4 -0.526,-0.085 -0.675,-0.25 -0.158,-0.172 -0.191,-0.384 -0.099,-0.638 l 0.163,-0.442 c 0.09,-0.244 0.277,-0.453 0.56,-0.627 0.272,-0.166 0.56,-0.25 0.861,-0.25 l 2.679,0.01 c 0.28,0 0.489,0.081 0.627,0.235 0.151,0.157 0.194,0.403 0.124,0.736 l -0.544,-0.002 c 0.02,-0.156 -0.011,-0.271 -0.09,-0.337 h 0.005 c -0.074,-0.055 -0.182,-0.084 -0.323,-0.084 l -2.678,-0.01 c -0.16,0 -0.311,0.035 -0.447,0.109 -0.12,0.062 -0.195,0.136 -0.229,0.22 l -0.163,0.443 c -0.032,0.089 -0.011,0.165 0.062,0.229 0.083,0.074 0.207,0.111 0.368,0.113 l 2.679,0.008 c 0.303,0 0.526,0.084 0.668,0.249 0.158,0.177 0.191,0.386 0.102,0.634 l -0.164,0.442 c -0.092,0.251 -0.28,0.463 -0.565,0.633 z"
   id="path401"
   style="fill:#ffffff" />

			<path
   d="m 663.676,507.53 c -0.256,0.134 -0.518,0.201 -0.787,0.201 l -1.288,-0.004 c -0.263,-0.002 -0.476,-0.069 -0.64,-0.201 -0.198,-0.164 -0.248,-0.377 -0.15,-0.639 l 0.406,-1.109 c 0.095,-0.257 0.299,-0.468 0.613,-0.631 0.261,-0.137 0.523,-0.204 0.791,-0.203 l 1.29,0.005 c 0.253,0 0.462,0.064 0.624,0.192 0.205,0.166 0.262,0.38 0.164,0.643 l -0.41,1.115 c -0.094,0.256 -0.298,0.466 -0.613,0.631 z m 0.473,-1.749 c 0.03,-0.081 -0.009,-0.151 -0.114,-0.208 -0.09,-0.051 -0.198,-0.074 -0.324,-0.075 l -1.29,-0.003 c -0.13,-10e-4 -0.256,0.021 -0.38,0.069 -0.152,0.058 -0.244,0.128 -0.273,0.21 l -0.412,1.119 c -0.029,0.084 0.008,0.152 0.115,0.208 0.096,0.054 0.204,0.081 0.325,0.081 l 1.294,0.004 c 0.058,0 0.118,-0.006 0.184,-0.017 0.063,-0.013 0.127,-0.03 0.191,-0.057 0.152,-0.059 0.242,-0.132 0.274,-0.216 z"
   id="path403"
   style="fill:#ffffff" />

			<path
   d="m 666.191,505.511 -0.818,2.228 -0.549,-10e-4 1.113,-3.033 c 0.095,-0.259 0.275,-0.468 0.536,-0.624 0.229,-0.135 0.517,-0.202 0.86,-0.2 l -0.195,0.536 c -0.217,0.032 -0.373,0.072 -0.471,0.121 -0.1,0.05 -0.156,0.106 -0.182,0.168 l -0.096,0.261 0.55,0.001 -0.201,0.545 z"
   id="path405"
   style="fill:#ffffff" />

			<path
   d="m 668.68,505.518 -0.82,2.229 -0.552,-0.002 0.817,-2.229 -0.543,-0.001 0.199,-0.545 0.545,10e-4 0.4,-1.091 0.553,0.002 -0.401,1.092 0.551,0.001 -0.2,0.544 z"
   id="path407"
   style="fill:#ffffff" />

			<path
   d="m 672.865,507.55 c -0.232,0.138 -0.497,0.206 -0.789,0.205 -0.158,0 -0.309,-0.023 -0.444,-0.067 -0.138,-0.046 -0.255,-0.115 -0.351,-0.209 -0.166,0.091 -0.336,0.159 -0.511,0.206 -0.175,0.047 -0.343,0.07 -0.503,0.069 -0.28,0 -0.49,-0.069 -0.629,-0.205 -0.154,-0.154 -0.18,-0.366 -0.084,-0.634 l 0.713,-1.938 0.549,0.002 -0.713,1.941 c -0.029,0.083 -0.005,0.15 0.076,0.204 0.09,0.056 0.213,0.085 0.373,0.085 0.161,0 0.306,-0.026 0.428,-0.083 0.121,-0.049 0.199,-0.119 0.231,-0.207 l 0.438,-1.193 0.55,10e-4 -0.442,1.199 c -0.029,0.085 -0.004,0.151 0.08,0.198 0.088,0.058 0.208,0.085 0.362,0.085 0.165,10e-4 0.31,-0.026 0.434,-0.083 0.122,-0.049 0.198,-0.114 0.229,-0.197 l 0.713,-1.942 0.554,0.003 -0.713,1.937 c -0.093,0.26 -0.279,0.468 -0.551,0.623 z"
   id="path409"
   style="fill:#ffffff" />

			<path
   d="m 676.999,507.576 c -0.257,0.131 -0.524,0.196 -0.798,0.196 l -1.289,-0.004 c -0.277,-10e-4 -0.496,-0.067 -0.654,-0.196 -0.191,-0.156 -0.238,-0.366 -0.141,-0.635 0.096,-0.259 0.301,-0.468 0.612,-0.628 0.259,-0.133 0.522,-0.199 0.792,-0.199 l 1.287,0.004 c 0.083,0 0.162,0.009 0.236,0.022 0.074,0.015 0.163,0.045 0.27,0.085 l 0.139,-0.376 c 0.018,-0.079 -0.025,-0.149 -0.131,-0.212 -0.092,-0.061 -0.192,-0.091 -0.301,-0.091 l -1.29,-0.004 c -0.056,0 -0.111,0.004 -0.165,0.013 -0.057,0.008 -0.111,0.026 -0.17,0.05 -0.143,0.055 -0.266,0.159 -0.364,0.313 l -0.545,-0.003 c 0.173,-0.336 0.405,-0.578 0.696,-0.729 0.245,-0.126 0.492,-0.188 0.743,-0.187 l 1.292,0.004 c 0.254,0 0.465,0.064 0.625,0.191 0.208,0.161 0.264,0.375 0.162,0.643 l -0.406,1.11 c -0.097,0.264 -0.297,0.475 -0.6,0.633 z m 0.048,-0.629 c 0.031,-0.083 -0.006,-0.151 -0.113,-0.209 -0.096,-0.053 -0.203,-0.082 -0.322,-0.082 l -1.29,-0.004 c -0.149,0 -0.296,0.033 -0.438,0.098 -0.117,0.053 -0.188,0.114 -0.216,0.185 -0.026,0.073 -0.002,0.138 0.072,0.191 0.088,0.064 0.211,0.098 0.367,0.098 l 1.293,0.004 c 0.128,0 0.252,-0.021 0.375,-0.068 0.153,-0.06 0.243,-0.131 0.272,-0.213 z"
   id="path411"
   style="fill:#ffffff" />

			<path
   d="m 681.761,505.936 c 0.011,-0.154 -0.036,-0.26 -0.14,-0.315 -0.037,-0.023 -0.08,-0.041 -0.129,-0.051 -0.048,-0.007 -0.1,-0.012 -0.151,-0.012 l -1.29,-0.005 c -0.129,0 -0.258,0.025 -0.387,0.074 -0.146,0.056 -0.236,0.127 -0.268,0.211 l -0.711,1.941 -0.55,-10e-4 1.017,-2.773 0.549,0.002 -0.041,0.115 c 0.11,-0.041 0.211,-0.07 0.307,-0.087 0.092,-0.019 0.186,-0.027 0.281,-0.027 l 1.293,0.004 c 0.243,0.002 0.443,0.065 0.598,0.189 0.188,0.152 0.242,0.396 0.166,0.735 z"
   id="path413"
   style="fill:#ffffff" />

			<path
   d="m 686.647,505.852 c -0.095,0.258 -0.298,0.468 -0.614,0.632 -0.26,0.136 -0.522,0.201 -0.787,0.201 l -1.289,-0.005 c -0.086,0 -0.165,-0.008 -0.239,-0.023 -0.075,-0.014 -0.164,-0.041 -0.271,-0.083 l -0.136,0.37 -0.004,0.008 c -0.02,0.078 0.026,0.147 0.136,0.211 0.049,0.032 0.098,0.055 0.148,0.07 0.051,0.014 0.104,0.019 0.156,0.019 l 1.288,0.005 c 0.054,0 0.107,-0.005 0.162,-0.013 0.056,-0.01 0.11,-0.026 0.167,-0.049 0.143,-0.056 0.266,-0.16 0.369,-0.313 l 0.543,0.002 c -0.172,0.337 -0.406,0.579 -0.701,0.729 -0.244,0.126 -0.49,0.189 -0.738,0.188 l -1.289,-0.004 c -0.248,0 -0.456,-0.066 -0.624,-0.197 -0.21,-0.162 -0.266,-0.377 -0.169,-0.641 l 0.41,-1.109 c 0.096,-0.265 0.295,-0.474 0.598,-0.629 0.256,-0.132 0.522,-0.197 0.803,-0.197 l 1.29,0.005 c 0.271,10e-4 0.487,0.064 0.646,0.192 0.193,0.156 0.243,0.365 0.145,0.631 z m -0.553,0.008 c 0.027,-0.072 0,-0.133 -0.078,-0.188 -0.085,-0.067 -0.205,-0.102 -0.364,-0.102 l -1.284,-0.005 c -0.111,0 -0.239,0.025 -0.383,0.074 -0.15,0.053 -0.239,0.121 -0.27,0.208 -0.03,0.083 0.008,0.151 0.113,0.208 0.096,0.054 0.205,0.081 0.33,0.081 l 1.287,0.004 c 0.154,0 0.298,-0.032 0.436,-0.098 0.117,-0.05 0.187,-0.112 0.213,-0.182 z"
   id="path415"
   style="fill:#ffffff" />

		</g>

	</g>

	<g
   id="g417">
		<path
   d="m 763.209,498.047 c 0,0.921 -0.406,1.695 -1.219,2.323 -0.746,0.606 -1.679,0.91 -2.795,0.91 h -9.83 c -1.029,0 -1.902,-0.276 -2.617,-0.829 -0.77,-0.596 -1.256,-1.505 -1.463,-2.729 h 2 c 0.141,0.574 0.4,0.985 0.779,1.235 h -0.016 c 0.367,0.217 0.807,0.324 1.316,0.324 h 9.83 c 0.563,0 1.051,-0.13 1.463,-0.39 0.368,-0.238 0.553,-0.52 0.553,-0.845 v -1.625 c 0,-0.304 -0.185,-0.574 -0.553,-0.813 -0.434,-0.281 -0.926,-0.422 -1.479,-0.422 h -5.232 v -1.999 h 5.248 c 0.574,0 1.063,-0.135 1.463,-0.406 0.368,-0.237 0.553,-0.515 0.553,-0.828 v -1.625 c 0,-0.304 -0.185,-0.575 -0.553,-0.813 -0.434,-0.282 -0.926,-0.423 -1.479,-0.423 h -9.814 c -0.499,0 -0.933,0.108 -1.301,0.325 h 0.017 c -0.39,0.228 -0.655,0.639 -0.796,1.235 h -2 c 0.195,-1.235 0.672,-2.135 1.431,-2.698 0.715,-0.574 1.598,-0.86 2.649,-0.86 h 9.83 c 1.095,0 2.026,0.303 2.795,0.909 0.813,0.64 1.219,1.414 1.219,2.324 0,0.791 -0.031,1.511 -0.097,2.16 -0.022,0.325 -0.13,0.624 -0.325,0.895 -0.087,0.119 -0.188,0.243 -0.301,0.374 -0.113,0.13 -0.252,0.271 -0.414,0.422 0.314,0.293 0.553,0.563 0.715,0.813 0.184,0.304 0.293,0.596 0.325,0.878 0.067,0.64 0.098,1.365 0.098,2.178 z"
   id="path419" />

	</g>

	<g
   id="g421">
		<path
   d="m 642.725,483.365 -1.378,-2.203 h -7.962 l -1.402,2.203 h -1.748 c 0.551,-0.895 1.11,-1.8 1.68,-2.72 0.571,-0.919 1.131,-1.82 1.68,-2.707 0.551,-0.886 1.084,-1.743 1.6,-2.572 0.518,-0.827 1.006,-1.607 1.465,-2.338 0.132,-0.279 0.361,-0.418 0.689,-0.418 0.303,0 0.529,0.139 0.677,0.418 l 6.46,10.337 z m -8.393,-3.729 h 6.042 l -2.769,-4.441 c -0.09,-0.147 -0.172,-0.222 -0.246,-0.222 -0.082,0 -0.164,0.074 -0.246,0.222 z"
   id="path423" />

		<path
   d="m 658.253,482.664 c -0.591,0.467 -1.304,0.701 -2.142,0.701 h -7.432 c -0.846,0 -1.551,-0.229 -2.116,-0.688 -0.607,-0.477 -0.91,-1.063 -0.91,-1.761 v -5.856 c 0,-0.682 0.303,-1.264 0.91,-1.747 0.591,-0.469 1.305,-0.702 2.142,-0.702 h 7.443 c 0.779,0 1.439,0.218 1.982,0.653 0.565,0.434 0.93,1.119 1.094,2.054 h -1.514 c -0.106,-0.451 -0.307,-0.767 -0.602,-0.947 -0.255,-0.156 -0.579,-0.234 -0.973,-0.234 h -7.432 c -0.443,0 -0.82,0.103 -1.133,0.308 -0.271,0.173 -0.406,0.377 -0.406,0.616 v 5.856 c 0,0.246 0.135,0.46 0.406,0.641 l -0.012,-0.014 c 0.303,0.206 0.677,0.309 1.119,0.309 h 7.432 c 0.386,0 0.73,-0.082 1.034,-0.246 0.36,-0.172 0.542,-0.407 0.542,-0.701 v -2.153 h -6.018 v -1.514 h 7.519 v 3.679 c 0.002,0.68 -0.31,1.262 -0.933,1.746 z"
   id="path425" />

		<path
   d="m 674.139,478.049 c -0.566,0.46 -1.275,0.689 -2.129,0.689 h -8.971 v 4.627 h -1.514 v -8.306 c 0,-0.682 0.304,-1.264 0.911,-1.747 0.591,-0.469 1.305,-0.702 2.141,-0.702 h 7.433 c 0.828,0 1.533,0.233 2.117,0.702 0.614,0.483 0.922,1.065 0.922,1.747 v 1.229 c 0,0.699 -0.303,1.285 -0.91,1.761 z m -0.59,-2.989 c 0,-0.23 -0.141,-0.436 -0.42,-0.616 -0.311,-0.205 -0.684,-0.308 -1.119,-0.308 h -7.444 c -0.378,0 -0.718,0.078 -1.021,0.234 -0.338,0.156 -0.506,0.386 -0.506,0.689 v 2.165 h 8.971 c 0.436,0 0.809,-0.099 1.119,-0.295 0.279,-0.182 0.42,-0.395 0.42,-0.641 z"
   id="path427" />

		<path
   d="m 690.91,480.965 c -0.124,0.731 -0.469,1.316 -1.034,1.761 -0.55,0.426 -1.214,0.64 -1.993,0.64 h -7.445 c -0.836,0 -1.546,-0.229 -2.127,-0.688 -0.616,-0.477 -0.924,-1.063 -0.924,-1.761 v -8.294 h 1.537 v 8.294 c 0,0.246 0.137,0.46 0.407,0.641 l -0.013,-0.014 c 0.303,0.206 0.678,0.309 1.119,0.309 h 7.445 c 0.377,0 0.705,-0.082 0.984,-0.246 h -0.012 c 0.295,-0.181 0.496,-0.489 0.602,-0.923 h 1.207 z"
   id="path429" />

	</g>

	<g
   id="g431">
		<path
   d="m 642.567,494.663 c -0.116,0.686 -0.438,1.234 -0.97,1.65 -0.516,0.4 -1.139,0.6 -1.869,0.6 h -6.982 c -0.784,0 -1.449,-0.215 -1.996,-0.646 -0.576,-0.445 -0.865,-0.996 -0.865,-1.649 v -7.777 h 1.442 v 7.777 c 0,0.231 0.127,0.431 0.381,0.601 l -0.012,-0.013 c 0.284,0.192 0.635,0.289 1.05,0.289 h 6.982 c 0.354,0 0.662,-0.077 0.924,-0.23 h -0.013 c 0.277,-0.169 0.466,-0.458 0.566,-0.865 h 1.13 z"
   id="path433" />

		<path
   d="m 657.793,496.256 c -0.554,0.438 -1.224,0.657 -2.008,0.657 h -6.971 c -0.793,0 -1.453,-0.215 -1.984,-0.646 -0.57,-0.445 -0.854,-0.996 -0.854,-1.649 v -5.493 c 0,-0.639 0.283,-1.185 0.854,-1.639 0.554,-0.438 1.223,-0.657 2.008,-0.657 h 6.982 c 0.73,0 1.35,0.203 1.857,0.611 0.531,0.408 0.873,1.05 1.026,1.927 h -1.419 c -0.1,-0.423 -0.289,-0.719 -0.565,-0.889 -0.239,-0.146 -0.542,-0.219 -0.912,-0.219 h -6.97 c -0.416,0 -0.77,0.097 -1.063,0.288 -0.253,0.161 -0.38,0.354 -0.38,0.577 v 5.493 c 0,0.231 0.127,0.431 0.38,0.601 l -0.011,-0.013 c 0.284,0.192 0.634,0.289 1.05,0.289 h 6.971 c 0.361,0 0.684,-0.077 0.969,-0.23 0.339,-0.161 0.508,-0.381 0.508,-0.659 v -2.019 h -5.643 v -1.419 h 7.051 v 3.45 c 10e-4,0.639 -0.292,1.185 -0.876,1.639 z"
   id="path435" />

		<path
   d="m 673.941,491.929 c -0.53,0.431 -1.197,0.646 -1.997,0.646 h -8.412 v 4.339 h -1.419 v -7.789 c 0,-0.639 0.283,-1.185 0.854,-1.639 0.555,-0.438 1.223,-0.657 2.008,-0.657 h 6.97 c 0.777,0 1.438,0.219 1.985,0.657 0.577,0.454 0.865,1 0.865,1.639 v 1.154 c 0,0.653 -0.283,1.203 -0.854,1.65 z m -0.554,-2.805 c 0,-0.216 -0.131,-0.408 -0.393,-0.577 -0.291,-0.191 -0.642,-0.288 -1.05,-0.288 h -6.981 c -0.354,0 -0.674,0.072 -0.957,0.219 -0.316,0.147 -0.474,0.361 -0.474,0.646 v 2.031 h 8.412 c 0.408,0 0.759,-0.093 1.05,-0.277 0.262,-0.168 0.393,-0.37 0.393,-0.6 z"
   id="path437" />

		<path
   d="m 690.91,494.663 c -0.116,0.686 -0.439,1.234 -0.971,1.65 -0.515,0.4 -1.139,0.6 -1.869,0.6 h -6.981 c -0.784,0 -1.45,-0.215 -1.996,-0.646 -0.577,-0.445 -0.865,-0.996 -0.865,-1.649 v -7.777 h 1.442 v 7.777 c 0,0.231 0.127,0.431 0.381,0.601 l -0.012,-0.013 c 0.284,0.192 0.635,0.289 1.05,0.289 h 6.981 c 0.354,0 0.662,-0.077 0.924,-0.23 h -0.012 c 0.277,-0.169 0.465,-0.458 0.566,-0.865 h 1.13 z"
   id="path439" />

	</g>

</g>
</svg>
